<?xml version="1.0"?>
<svg xmlns="http://www.w3.org/2000/svg" xmlns:xlink="http://www.w3.org/1999/xlink" xmlns:svgjs="http://svgjs.com/svgjs"
    version="1.1" width="50px" height="50px" x="0" y="0" viewBox="0 0 24 24" style="enable-background:new 0 0 512 512"
    xml:space="preserve" class="">
    <g>
        <path xmlns="http://www.w3.org/2000/svg"
            d="m15.25 14.5c-.173 0-.346-.059-.488-.181-.314-.27-.351-.743-.081-1.058l1.081-1.261-1.082-1.262c-.27-.314-.233-.788.081-1.058.315-.27.788-.233 1.058.081l1.5 1.75c.241.281.241.695 0 .977l-1.5 1.75c-.148.173-.358.262-.569.262z"
            fill="#47b2e4" data-original="#000000" style="" />
        <path xmlns="http://www.w3.org/2000/svg"
            d="m8.75 14.5c-.211 0-.421-.089-.57-.262l-1.5-1.75c-.241-.281-.241-.695 0-.977l1.5-1.75c.27-.313.743-.351 1.058-.08.314.27.351.743.081 1.058l-1.081 1.261 1.082 1.262c.27.314.233.788-.081 1.058-.142.12-.316.18-.489.18z"
            fill="#47b2e4" data-original="#000000" style="" />
        <path xmlns="http://www.w3.org/2000/svg"
            d="m11.082 15.981c-.404-.093-.655-.496-.563-.899l1.5-6.5c.093-.403.495-.654.899-.563.404.093.655.496.563.899l-1.5 6.5c-.091.397-.486.656-.899.563z"
            fill="#47b2e4" data-original="#000000" style="" />
        <path xmlns="http://www.w3.org/2000/svg"
            d="m22.25 4h-20.5c-.96 0-1.75.79-1.75 1.75v12.5c0 .96.79 1.75 1.75 1.75h8.25v2h-2c-.552 0-1 .448-1 1s.448 1 1 1h8c.553 0 1-.448 1-1s-.447-1-1-1h-2v-2h8.25c.96 0 1.75-.79 1.75-1.75v-12.5c0-.96-.79-1.75-1.75-1.75zm-.25 14h-20v-12h20z"
            fill="#47b2e4" data-original="#000000" style="" />
    </g>
</svg>