<svg viewBox="0 0 64 64" width="50px" height="50px"  xmlns="http://www.w3.org/2000/svg">
    <g id="Database">
        <path
            d="m52 36c-5.47 0-9 1.57-9 4v18c0 2.43 3.53 4 9 4s9-1.57 9-4v-18c0-2.43-3.53-4-9-4zm7 22c0 .68-2.11 2-7 2s-7-1.32-7-2v-3.31a15.576 15.576 0 0 0 7 1.31 15.576 15.576 0 0 0 7-1.31zm0-6c0 .68-2.11 2-7 2s-7-1.32-7-2v-3.31a15.576 15.576 0 0 0 7 1.31 15.576 15.576 0 0 0 7-1.31zm0-6c0 .68-2.11 2-7 2s-7-1.32-7-2v-3.31a15.576 15.576 0 0 0 7 1.31 15.576 15.576 0 0 0 7-1.31zm-7-4c-4.89 0-7-1.32-7-2s2.11-2 7-2 7 1.32 7 2-2.11 2-7 2z" fill="#47b2e4" data-original="#000000" style="" />
        <path
            d="m12 36c-5.47 0-9 1.57-9 4v18c0 2.43 3.53 4 9 4s9-1.57 9-4v-18c0-2.43-3.53-4-9-4zm7 22c0 .68-2.11 2-7 2s-7-1.32-7-2v-3.31a15.576 15.576 0 0 0 7 1.31 15.576 15.576 0 0 0 7-1.31zm0-6c0 .68-2.11 2-7 2s-7-1.32-7-2v-3.31a15.576 15.576 0 0 0 7 1.31 15.576 15.576 0 0 0 7-1.31zm0-6c0 .68-2.11 2-7 2s-7-1.32-7-2v-3.31a15.576 15.576 0 0 0 7 1.31 15.576 15.576 0 0 0 7-1.31zm-7-4c-4.89 0-7-1.32-7-2s2.11-2 7-2 7 1.32 7 2-2.11 2-7 2z" fill="#47b2e4" data-original="#000000" style="" /> 
        <path
            d="m49 18h-.21a10.792 10.792 0 0 0 1.21-5 11 11 0 0 0 -21.67-2.67 8.488 8.488 0 0 0 -14.33 6.17 3.507 3.507 0 0 0 .4 1.53 6 6 0 0 0 .6 11.97h4.03a.964.964 0 0 0 0 .24l1 4a1 1 0 0 0 .97.76h22a1 1 0 0 0 .97-.76l1-4a.964.964 0 0 0 0-.24h4.03a6 6 0 0 0 0-12zm-6.78 15h-20.44l-.5-2h7.72a1 1 0 0 0 1 1h4a1 1 0 0 0 1-1h7.72zm-19.22-4v-10h18v10h-7a1 1 0 0 0 -1 1h-2a1 1 0 0 0 -1-1zm26-1h-6v-10a1 1 0 0 0 -1-1h-20a1 1 0 0 0 -1 1v10h-6a4 4 0 0 1 0-8h1a1.014 1.014 0 0 0 .82-.42 1.035 1.035 0 0 0 .12-.92 6.909 6.909 0 0 0 -.47-.99 3.068 3.068 0 0 1 -.47-1.17 6.492 6.492 0 0 1 12.14-3.21 1 1 0 0 0 1.87-.48 9 9 0 1 1 16.18 5.59 1 1 0 0 0 .8 1.6h2.01a4 4 0 0 1 0 8z"  fill="#47b2e4" data-original="#000000" style=""/>
        <path d="m28 49a1 1 0 0 1 -1 1h-4v2h4a3 3 0 0 0 3-3v-8h-2z"  fill="#47b2e4" data-original="#000000" style="" />
        <path d="m36 49v-8h-2v8a3 3 0 0 0 3 3h4v-2h-4a1 1 0 0 1 -1-1z"  fill="#47b2e4" data-original="#000000" style="" />
        <path d="m28 37h2v2h-2z" fill="#47b2e4" data-original="#000000" style=""  />
        <path d="m34 37h2v2h-2z" fill="#47b2e4" data-original="#000000" style=""  />
    </g>
</svg>