<?xml version="1.0"?>
<svg xmlns="http://www.w3.org/2000/svg" xmlns:xlink="http://www.w3.org/1999/xlink" xmlns:svgjs="http://svgjs.com/svgjs"
    version="1.1" width="50px" height="50px" x="0" y="0" viewBox="0 0 496 495" style="enable-background:new 0 0 512 512"
    xml:space="preserve">
    <g>
        <path xmlns="http://www.w3.org/2000/svg"
            d="m488 328.5h-32v-240c-.027344-22.082031-17.917969-39.972656-40-40h-88v-40c0-4.417969-3.582031-8-8-8h-216c-4.417969 0-8 3.582031-8 8v40h-16c-22.082031.027344-39.972656 17.917969-40 40v240h-32c-4.417969 0-8 3.582031-8 8v32c.0273438 22.082031 17.917969 39.972656 40 40h416c22.082031-.027344 39.972656-17.917969 40-40v-32c0-4.417969-3.582031-8-8-8zm-160-176h56v144h-56zm64-16h-64v-40h88v200h-16v-152c0-4.417969-3.582031-8-8-8zm-280-120h200v280h-200zm-32 280v-200h16v200zm-24-208c0-13.253906 10.746094-24 24-24h16v16h-24c-4.417969 0-8 3.582031-8 8v216c0 4.417969 3.582031 8 8 8h352c4.417969 0 8-3.582031 8-8v-216c0-4.417969-3.582031-8-8-8h-96v-16h88c13.253906 0 24 10.746094 24 24v240h-384zm229.753906 256-4 16h-67.507812l-4-16zm194.246094 24c0 13.253906-10.746094 24-24 24h-416c-13.253906 0-24-10.746094-24-24v-24h177.753906l6.484375 25.945312c.894531 3.558594 4.09375 6.054688 7.761719 6.054688h80c3.667969 0 6.867188-2.496094 7.761719-6.054688l6.484375-25.945312h177.753906zm0 0"
            fill="#47b2e4" data-original="#000000" style="" />
        <path xmlns="http://www.w3.org/2000/svg"
            d="m72 352.5h-40c-4.417969 0-8 3.582031-8 8s3.582031 8 8 8h40c4.417969 0 8-3.582031 8-8s-3.582031-8-8-8zm0 0"
            fill="#47b2e4" data-original="#000000" style="" />
        <path xmlns="http://www.w3.org/2000/svg"
            d="m112 352.5h-8c-4.417969 0-8 3.582031-8 8s3.582031 8 8 8h8c4.417969 0 8-3.582031 8-8s-3.582031-8-8-8zm0 0"
            fill="#47b2e4" data-original="#000000" style="" />
        <path xmlns="http://www.w3.org/2000/svg"
            d="m136 136.5h152c4.417969 0 8-3.582031 8-8s-3.582031-8-8-8h-152c-4.417969 0-8 3.582031-8 8s3.582031 8 8 8zm0 0"
            fill="#47b2e4" data-original="#000000" style="" />
        <path xmlns="http://www.w3.org/2000/svg"
            d="m136 168.5h152c4.417969 0 8-3.582031 8-8s-3.582031-8-8-8h-152c-4.417969 0-8 3.582031-8 8s3.582031 8 8 8zm0 0"
            fill="#47b2e4" data-original="#000000" style="" />
        <path xmlns="http://www.w3.org/2000/svg"
            d="m136 200.5h152c4.417969 0 8-3.582031 8-8s-3.582031-8-8-8h-152c-4.417969 0-8 3.582031-8 8s3.582031 8 8 8zm0 0"
            fill="#47b2e4" data-original="#000000" style="" />
        <path xmlns="http://www.w3.org/2000/svg"
            d="m136 232.5h152c4.417969 0 8-3.582031 8-8s-3.582031-8-8-8h-152c-4.417969 0-8 3.582031-8 8s3.582031 8 8 8zm0 0"
            fill="#47b2e4" data-original="#000000" style="" />
        <path xmlns="http://www.w3.org/2000/svg"
            d="m136 264.5h96c4.417969 0 8-3.582031 8-8s-3.582031-8-8-8h-96c-4.417969 0-8 3.582031-8 8s3.582031 8 8 8zm0 0"
            fill="#47b2e4" data-original="#000000" style="" />
        <path xmlns="http://www.w3.org/2000/svg"
            d="m264 248.5h-8c-4.417969 0-8 3.582031-8 8s3.582031 8 8 8h8c4.417969 0 8-3.582031 8-8s-3.582031-8-8-8zm0 0"
            fill="#47b2e4" data-original="#000000" style="" />
    </g>
</svg>